<mxfile host="65bd71144e">
    <diagram id="eZT_BmYwKZDDpAdGqNE_" name="Page-1">
        <mxGraphModel dx="438" dy="485" grid="1" gridSize="10" guides="1" tooltips="1" connect="1" arrows="1" fold="1" page="1" pageScale="1" pageWidth="800" pageHeight="700" math="0" shadow="0">
            <root>
                <mxCell id="0"/>
                <mxCell id="1" parent="0"/>
                <mxCell id="88" value="" style="fillColor=#10739E;strokeColor=none;opacity=30;" parent="1" vertex="1">
                    <mxGeometry x="40" y="330" width="560" height="80" as="geometry"/>
                </mxCell>
                <mxCell id="233" value="" style="fillColor=#10739E;strokeColor=none;opacity=30;" parent="1" vertex="1">
                    <mxGeometry x="90" y="570" width="510" height="80" as="geometry"/>
                </mxCell>
                <mxCell id="230" value="" style="fillColor=#10739E;strokeColor=none;opacity=30;" parent="1" vertex="1">
                    <mxGeometry x="40" y="450" width="560" height="80" as="geometry"/>
                </mxCell>
                <mxCell id="78" value="" style="fillColor=#AE4132;strokeColor=none;opacity=30;" parent="1" vertex="1">
                    <mxGeometry x="39" y="40" width="561" height="100" as="geometry"/>
                </mxCell>
                <mxCell id="79" value="" style="fillColor=#349E9A;strokeColor=none;opacity=30;" parent="1" vertex="1">
                    <mxGeometry x="39" y="190" width="561" height="100" as="geometry"/>
                </mxCell>
                <mxCell id="94" value="Top" style="rounded=1;fillColor=#60a917;strokeColor=#2D7600;fontColor=#ffffff;fontStyle=1;fontFamily=Tahoma;fontSize=14;shadow=1;" parent="1" vertex="1">
                    <mxGeometry x="50" y="50" width="180" height="80" as="geometry"/>
                </mxCell>
                <mxCell id="96" value="" style="edgeStyle=elbowEdgeStyle;elbow=vertical;strokeWidth=2;rounded=0;entryX=0.697;entryY=0.002;entryDx=0;entryDy=0;entryPerimeter=0;exitX=0.5;exitY=1;exitDx=0;exitDy=0;" parent="1" source="184" target="98" edge="1">
                    <mxGeometry x="154" y="49.99999999999997" width="100" height="100" as="geometry">
                        <mxPoint x="499" y="130" as="sourcePoint"/>
                        <mxPoint x="180" y="170" as="targetPoint"/>
                        <Array as="points">
                            <mxPoint x="500" y="170"/>
                        </Array>
                    </mxGeometry>
                </mxCell>
                <mxCell id="98" value="My_page" style="rounded=1;fillColor=#60a917;strokeColor=#2D7600;fontColor=#ffffff;fontStyle=1;fontFamily=Tahoma;fontSize=14" parent="1" vertex="1">
                    <mxGeometry x="49" y="200" width="181" height="80" as="geometry"/>
                </mxCell>
                <mxCell id="108" value="User/Patient&#10;一覧" style="rounded=1;fillColor=#1ba1e2;strokeColor=#006EAF;fontColor=#ffffff;fontStyle=1;fontFamily=Tahoma;fontSize=14" parent="1" vertex="1">
                    <mxGeometry x="99" y="340" width="130" height="60" as="geometry"/>
                </mxCell>
                <mxCell id="197" value="" style="edgeStyle=none;html=1;strokeWidth=2;exitX=0.065;exitY=1.005;exitDx=0;exitDy=0;exitPerimeter=0;entryX=0;entryY=0.5;entryDx=0;entryDy=0;fillColor=#d80073;strokeColor=#A50040;" parent="1" source="98" target="196" edge="1">
                    <mxGeometry relative="1" as="geometry">
                        <mxPoint x="540" y="420" as="targetPoint"/>
                        <Array as="points">
                            <mxPoint x="61" y="490"/>
                        </Array>
                    </mxGeometry>
                </mxCell>
                <mxCell id="232" style="edgeStyle=none;html=1;entryX=0.5;entryY=0;entryDx=0;entryDy=0;strokeWidth=2;fillColor=#1ba1e2;strokeColor=#006EAF;" parent="1" source="109" target="196" edge="1">
                    <mxGeometry relative="1" as="geometry">
                        <Array as="points">
                            <mxPoint x="334" y="430"/>
                            <mxPoint x="164" y="430"/>
                        </Array>
                    </mxGeometry>
                </mxCell>
                <mxCell id="109" value="User/Patient&#10;詳細" style="rounded=1;fillColor=#1ba1e2;strokeColor=#006EAF;fontColor=#ffffff;fontStyle=1;fontFamily=Tahoma;fontSize=14" parent="1" vertex="1">
                    <mxGeometry x="269" y="340" width="130" height="60" as="geometry"/>
                </mxCell>
                <mxCell id="111" value="Interviews&#10;詳細" style="rounded=1;fillColor=#60a917;strokeColor=#2D7600;fontColor=#ffffff;fontStyle=1;fontFamily=Tahoma;fontSize=14" parent="1" vertex="1">
                    <mxGeometry x="269" y="460" width="130" height="60" as="geometry"/>
                </mxCell>
                <mxCell id="223" style="edgeStyle=none;rounded=1;html=1;entryX=0;entryY=0.5;entryDx=0;entryDy=0;strokeWidth=2;exitX=1;exitY=0.5;exitDx=0;exitDy=0;" parent="1" source="123" target="127" edge="1">
                    <mxGeometry relative="1" as="geometry">
                        <mxPoint x="610" y="570" as="sourcePoint"/>
                    </mxGeometry>
                </mxCell>
                <mxCell id="123" value="Interviews&#10;投稿" style="rounded=1;strokeColor=#A50040;fontColor=#ffffff;fontStyle=1;fontFamily=Tahoma;fontSize=14;fillColor=#d80073;" parent="1" vertex="1">
                    <mxGeometry x="100" y="580" width="130" height="60" as="geometry"/>
                </mxCell>
                <mxCell id="224" style="edgeStyle=none;rounded=1;html=1;entryX=0;entryY=0.5;entryDx=0;entryDy=0;strokeWidth=2;" parent="1" source="127" target="128" edge="1">
                    <mxGeometry relative="1" as="geometry"/>
                </mxCell>
                <mxCell id="127" value="Interviews&#10;入力内容確認" style="rounded=1;strokeColor=#A50040;fontColor=#ffffff;fontStyle=1;fontFamily=Tahoma;fontSize=14;fillColor=#d80073;" parent="1" vertex="1">
                    <mxGeometry x="270" y="580" width="130" height="60" as="geometry"/>
                </mxCell>
                <mxCell id="235" style="edgeStyle=none;html=1;entryX=0.704;entryY=1.036;entryDx=0;entryDy=0;entryPerimeter=0;strokeWidth=2;fillColor=#d80073;strokeColor=#A50040;" parent="1" source="128" target="196" edge="1">
                    <mxGeometry relative="1" as="geometry">
                        <Array as="points">
                            <mxPoint x="505" y="550"/>
                            <mxPoint x="191" y="550"/>
                        </Array>
                    </mxGeometry>
                </mxCell>
                <mxCell id="128" value="問診送信完了" style="rounded=1;strokeColor=#A50040;fontColor=#ffffff;fontStyle=1;fontFamily=Tahoma;fontSize=14;fillColor=#d80073;" parent="1" vertex="1">
                    <mxGeometry x="440" y="580" width="130" height="60" as="geometry"/>
                </mxCell>
                <mxCell id="141" value="" style="edgeStyle=elbowEdgeStyle;elbow=vertical;strokeWidth=2;rounded=0;exitX=0.5;exitY=1;exitDx=0;exitDy=0;entryX=0.25;entryY=0;entryDx=0;entryDy=0;" parent="1" source="186" target="98" edge="1">
                    <mxGeometry x="70" y="73.99999999999997" width="100" height="100" as="geometry">
                        <mxPoint x="342" y="134" as="sourcePoint"/>
                        <mxPoint x="160" y="184" as="targetPoint"/>
                        <Array as="points">
                            <mxPoint x="130" y="150"/>
                            <mxPoint x="120" y="150"/>
                            <mxPoint x="240" y="150"/>
                        </Array>
                    </mxGeometry>
                </mxCell>
                <mxCell id="150" value="" style="edgeStyle=elbowEdgeStyle;elbow=horizontal;strokeWidth=2;rounded=0;exitX=1;exitY=0.5;exitDx=0;exitDy=0;entryX=0;entryY=0.5;entryDx=0;entryDy=0;fillColor=#1ba1e2;strokeColor=#006EAF;" parent="1" source="108" target="109" edge="1">
                    <mxGeometry x="-171" y="19.99999999999997" width="100" height="100" as="geometry">
                        <mxPoint x="-171" y="119.99999999999997" as="sourcePoint"/>
                        <mxPoint x="-71" y="19.99999999999997" as="targetPoint"/>
                        <Array as="points"/>
                    </mxGeometry>
                </mxCell>
                <mxCell id="176" value="" style="edgeStyle=elbowEdgeStyle;elbow=vertical;strokeWidth=2;rounded=1;entryX=0;entryY=0.5;entryDx=0;entryDy=0;exitX=1;exitY=0.5;exitDx=0;exitDy=0;" parent="1" source="98" target="117" edge="1">
                    <mxGeometry x="-100" y="-2.842170943040401e-14" width="100" height="100" as="geometry">
                        <mxPoint x="384" y="300" as="sourcePoint"/>
                        <mxPoint y="-2.842170943040401e-14" as="targetPoint"/>
                    </mxGeometry>
                </mxCell>
                <mxCell id="184" value="sign up" style="rounded=1;fillColor=#60a917;strokeColor=#2D7600;fontColor=#ffffff;fontStyle=1;fontFamily=Tahoma;fontSize=14" parent="1" vertex="1">
                    <mxGeometry x="430" y="80" width="120" height="50" as="geometry"/>
                </mxCell>
                <mxCell id="186" value="log in&#10;Top兼用もあり" style="rounded=1;fillColor=#60a917;strokeColor=#2D7600;fontColor=#ffffff;fontStyle=1;fontFamily=Tahoma;fontSize=14" parent="1" vertex="1">
                    <mxGeometry x="270" y="80" width="120" height="50" as="geometry"/>
                </mxCell>
                <mxCell id="187" value="" style="edgeStyle=elbowEdgeStyle;elbow=vertical;strokeWidth=2;rounded=0;entryX=0.5;entryY=0;entryDx=0;entryDy=0;" parent="1" target="184" edge="1">
                    <mxGeometry x="235" y="-25.00000000000003" width="100" height="100" as="geometry">
                        <mxPoint x="230" y="60" as="sourcePoint"/>
                        <mxPoint x="500" y="80" as="targetPoint"/>
                        <Array as="points">
                            <mxPoint x="360" y="60"/>
                        </Array>
                    </mxGeometry>
                </mxCell>
                <mxCell id="190" value="" style="edgeStyle=elbowEdgeStyle;elbow=vertical;strokeWidth=2;rounded=0;exitX=0.99;exitY=0.106;exitDx=0;exitDy=0;entryX=0.5;entryY=0;entryDx=0;entryDy=0;exitPerimeter=0;" parent="1" source="94" target="186" edge="1">
                    <mxGeometry x="-243" y="-25.00000000000003" width="100" height="100" as="geometry">
                        <mxPoint x="242" y="60" as="sourcePoint"/>
                        <mxPoint x="437" y="80" as="targetPoint"/>
                        <Array as="points">
                            <mxPoint x="360" y="60"/>
                        </Array>
                    </mxGeometry>
                </mxCell>
                <mxCell id="200" style="edgeStyle=none;html=1;entryX=0;entryY=0.5;entryDx=0;entryDy=0;strokeWidth=2;" parent="1" source="196" target="111" edge="1">
                    <mxGeometry relative="1" as="geometry"/>
                </mxCell>
                <mxCell id="234" style="edgeStyle=none;html=1;strokeWidth=2;fillColor=#d80073;strokeColor=#A50040;" parent="1" edge="1">
                    <mxGeometry relative="1" as="geometry">
                        <mxPoint x="134.25" y="520" as="sourcePoint"/>
                        <mxPoint x="134.7500000000001" y="580" as="targetPoint"/>
                    </mxGeometry>
                </mxCell>
                <mxCell id="196" value="Interviews&#10;一覧" style="rounded=1;fillColor=#60a917;strokeColor=#2D7600;fontColor=#ffffff;fontStyle=1;fontFamily=Tahoma;fontSize=14" parent="1" vertex="1">
                    <mxGeometry x="99" y="460" width="130" height="60" as="geometry"/>
                </mxCell>
                <mxCell id="117" value="PatientProfile&#10;編集" style="rounded=1;fillColor=#60a917;strokeColor=#2D7600;fontColor=#ffffff;fontStyle=1;fontFamily=Tahoma;fontSize=14" parent="1" vertex="1">
                    <mxGeometry x="270" y="210" width="120" height="60" as="geometry"/>
                </mxCell>
                <mxCell id="231" value="" style="edgeStyle=none;html=1;strokeWidth=2;exitX=0.167;exitY=0.99;exitDx=0;exitDy=0;exitPerimeter=0;entryX=0;entryY=0.5;entryDx=0;entryDy=0;fillColor=#1ba1e2;strokeColor=#006EAF;" parent="1" source="98" target="108" edge="1">
                    <mxGeometry relative="1" as="geometry">
                        <mxPoint x="109.00000000000006" y="499.9999999999999" as="targetPoint"/>
                        <mxPoint x="70.76499999999999" y="290.4" as="sourcePoint"/>
                        <Array as="points">
                            <mxPoint x="79" y="370"/>
                        </Array>
                    </mxGeometry>
                </mxCell>
                <mxCell id="236" value="共通ページ" style="rounded=1;fillColor=#60a917;strokeColor=#2D7600;fontColor=#ffffff;fontStyle=1;fontFamily=Tahoma;fontSize=14" parent="1" vertex="1">
                    <mxGeometry x="640" y="40" width="120" height="50" as="geometry"/>
                </mxCell>
                <mxCell id="237" value="User/Doctor&#10;ページ" style="rounded=1;fillColor=#1ba1e2;strokeColor=#006EAF;fontColor=#ffffff;fontStyle=1;fontFamily=Tahoma;fontSize=14" parent="1" vertex="1">
                    <mxGeometry x="640" y="120" width="120" height="50" as="geometry"/>
                </mxCell>
                <mxCell id="238" value="User/Patient&#10;ページ" style="rounded=1;fillColor=#d80073;strokeColor=#A50040;fontColor=#ffffff;fontStyle=1;fontFamily=Tahoma;fontSize=14" parent="1" vertex="1">
                    <mxGeometry x="640" y="200" width="120" height="50" as="geometry"/>
                </mxCell>
                <mxCell id="239" value="" style="edgeStyle=elbowEdgeStyle;elbow=horizontal;strokeWidth=2;rounded=0;fillColor=#1ba1e2;strokeColor=#006EAF;" parent="1" edge="1">
                    <mxGeometry x="279" y="-170.00000000000003" width="100" height="100" as="geometry">
                        <mxPoint x="650" y="180" as="sourcePoint"/>
                        <mxPoint x="750" y="180" as="targetPoint"/>
                        <Array as="points"/>
                    </mxGeometry>
                </mxCell>
                <mxCell id="240" value="" style="edgeStyle=elbowEdgeStyle;elbow=horizontal;strokeWidth=2;rounded=0;fillColor=#d80073;strokeColor=#A50040;" parent="1" edge="1">
                    <mxGeometry x="279" y="-90.00000000000003" width="100" height="100" as="geometry">
                        <mxPoint x="650" y="260" as="sourcePoint"/>
                        <mxPoint x="750" y="260" as="targetPoint"/>
                        <Array as="points"/>
                    </mxGeometry>
                </mxCell>
                <mxCell id="241" value="" style="edgeStyle=elbowEdgeStyle;elbow=horizontal;strokeWidth=2;rounded=0;" parent="1" edge="1">
                    <mxGeometry x="279" y="-250.00000000000003" width="100" height="100" as="geometry">
                        <mxPoint x="650" y="100" as="sourcePoint"/>
                        <mxPoint x="750" y="100" as="targetPoint"/>
                        <Array as="points"/>
                    </mxGeometry>
                </mxCell>
            </root>
        </mxGraphModel>
    </diagram>
</mxfile>
